<svg id="Layer_1" data-name="Layer 1" xmlns="http://www.w3.org/2000/svg" viewBox="0 0 386 372.22"><defs><style>.cls-1{fill:#262626;}.cls-2{fill:#c39738;}.cls-3{fill:#fff;}</style></defs><title>cimbra-logo-black</title><rect class="cls-1" width="386" height="372.22"/><polygon class="cls-2" points="244.16 93.62 185.92 122.75 185.92 122.75 141.34 100.46 199.58 71.34 185.92 64.51 185.92 64.5 185.91 64.5 185.9 64.5 127.67 93.63 127.66 93.62 127.66 93.63 127.66 93.63 114 100.46 114 100.46 114 100.46 185.92 136.43 185.92 136.42 257.84 100.46 244.16 93.62"/><path class="cls-2" d="M247.86,117.78v60.93l-61.94,31-61.94-31V117.78l59.74,29.87,2.2,1.1,2.2-1.1,59.74-29.87m4.92-8-66.86,33.43-66.86-33.43v71.93l66.86,33.42,66.86-33.42V109.82Z"/><rect class="cls-2" x="183.46" y="143.25" width="4.92" height="69.29"/><path class="cls-2" d="M119.46,291.63a3.25,3.25,0,0,1,1.15,2.63,3.22,3.22,0,0,1-1.15,2.62,4.78,4.78,0,0,1-3.14.94h-3.45v5.43h-.53V290.68h4A4.73,4.73,0,0,1,119.46,291.63Zm-.4,4.91a2.78,2.78,0,0,0,1-2.28,2.81,2.81,0,0,0-1-2.29,4.28,4.28,0,0,0-2.78-.81h-3.41v6.19h3.41A4.28,4.28,0,0,0,119.06,296.54Z"/><path class="cls-2" d="M135.6,303.25l-3.73-5.62h-4.33v5.62H127V290.68h4.59a4.41,4.41,0,0,1,3,.92,3.21,3.21,0,0,1,1.07,2.55,3.3,3.3,0,0,1-.83,2.32,3.72,3.72,0,0,1-2.31,1.11l3.73,5.67Zm-1.43-6.89a3.1,3.1,0,0,0,0-4.41,3.78,3.78,0,0,0-2.57-.79h-4.06v6h4.06A3.83,3.83,0,0,0,134.17,296.36Z"/><path class="cls-2" d="M150.63,291.28a5.16,5.16,0,0,1,2,2.25,8.8,8.8,0,0,1,0,6.88,5.16,5.16,0,0,1-2,2.25,6.3,6.3,0,0,1-6.11,0,5.28,5.28,0,0,1-2-2.25,8.8,8.8,0,0,1,0-6.88,5.28,5.28,0,0,1,2-2.25,6.3,6.3,0,0,1,6.11,0Zm-5.82.42a4.72,4.72,0,0,0-1.81,2.08,7.53,7.53,0,0,0-.63,3.19,7.46,7.46,0,0,0,.63,3.18,4.75,4.75,0,0,0,1.81,2.09,5.58,5.58,0,0,0,5.52,0,4.75,4.75,0,0,0,1.81-2.09,7.46,7.46,0,0,0,.63-3.18,7.53,7.53,0,0,0-.63-3.19,4.72,4.72,0,0,0-1.81-2.08,5.52,5.52,0,0,0-5.52,0Z"/><path class="cls-2" d="M167.29,291.63a3.22,3.22,0,0,1,1.15,2.63,3.19,3.19,0,0,1-1.15,2.62,4.78,4.78,0,0,1-3.14.94H160.7v5.43h-.53V290.68h4A4.73,4.73,0,0,1,167.29,291.63Zm-.4,4.91a2.78,2.78,0,0,0,1-2.28,2.81,2.81,0,0,0-1-2.29,4.28,4.28,0,0,0-2.78-.81H160.7v6.19h3.41A4.28,4.28,0,0,0,166.89,296.54Z"/><path class="cls-2" d="M175.37,303.25h-.53V290.68h.53Z"/><path class="cls-2" d="M191.74,302.78v.47H183V290.68h8.43v.48h-7.89v5.44h6.29v.48h-6.29v5.7Z"/><path class="cls-2" d="M206.65,292.24a6.14,6.14,0,0,1,1.6,4.57,6.66,6.66,0,0,1-1.6,4.81,6.15,6.15,0,0,1-4.62,1.63h-3.9V290.68H202A6.33,6.33,0,0,1,206.65,292.24Zm-.4,9a6.21,6.21,0,0,0,1.44-4.44,5.05,5.05,0,0,0-5.64-5.65h-3.39v11.62h3.39A5.49,5.49,0,0,0,206.25,301.25Z"/><path class="cls-2" d="M221.79,299h-6.25l-1.75,4.26h-.55l5.12-12.57H219l5.13,12.57h-.55Zm-.21-.5-2.53-6.23-.38-1-.38,1-2.56,6.25Z"/><path class="cls-2" d="M238.65,292.24a6.13,6.13,0,0,1,1.59,4.57,6.66,6.66,0,0,1-1.59,4.81,6.15,6.15,0,0,1-4.62,1.63h-3.91V290.68H234A6.33,6.33,0,0,1,238.65,292.24Zm-.4,9a6.21,6.21,0,0,0,1.44-4.44,5.05,5.05,0,0,0-5.64-5.65h-3.4v11.62h3.4A5.49,5.49,0,0,0,238.25,301.25Z"/><path class="cls-2" d="M255.83,302.78v.47H247.1V290.68h8.42v.48h-7.89v5.44h6.29v.48h-6.29v5.7Z"/><path class="cls-2" d="M270.64,293.37l-.44.34a3.57,3.57,0,0,0-1.47-2.08A5.06,5.06,0,0,0,266,291a5.25,5.25,0,0,0-2.1.39,3.39,3.39,0,0,0-1.39,1.06,2.48,2.48,0,0,0-.49,1.51,2.08,2.08,0,0,0,.4,1.31,3.13,3.13,0,0,0,1.35.92,14,14,0,0,0,2.63.66,11.21,11.21,0,0,1,2.61.72,3.36,3.36,0,0,1,1.4,1.06,2.9,2.9,0,0,1-.15,3.26,3.67,3.67,0,0,1-1.63,1.18,7.2,7.2,0,0,1-5.78-.41,3.74,3.74,0,0,1-1.74-2.41l.47-.33a3.33,3.33,0,0,0,1.55,2.3,5.74,5.74,0,0,0,3.12.79,5.23,5.23,0,0,0,2.92-.75,2.36,2.36,0,0,0,1.14-2.07,2.08,2.08,0,0,0-.91-1.78,7.77,7.77,0,0,0-3.13-1,12.5,12.5,0,0,1-2.85-.75,3.3,3.3,0,0,1-1.48-1.07,2.71,2.71,0,0,1-.45-1.59,3,3,0,0,1,.54-1.72A3.85,3.85,0,0,1,263.6,291a5.81,5.81,0,0,1,2.4-.47C268.47,290.49,270,291.45,270.64,293.37Z"/><path class="cls-3" d="M92.56,279.06a13.86,13.86,0,0,1-7.88,2.17,13.59,13.59,0,0,1-7.32-2,13,13,0,0,1-4.91-5.59,21.61,21.61,0,0,1,0-17,12.81,12.81,0,0,1,4.88-5.6,13.67,13.67,0,0,1,7.32-2q9.68,0,12.08,8l-1.27.61q-2.26-7.45-10.76-7.46a12,12,0,0,0-6.61,1.82,12.16,12.16,0,0,0-4.42,5.17,20.44,20.44,0,0,0,0,15.76,11.65,11.65,0,0,0,11,7,12.31,12.31,0,0,0,7.1-2,9.87,9.87,0,0,0,3.94-5.62l1.32.47A11,11,0,0,1,92.56,279.06Z"/><path class="cls-3" d="M119.18,280.76h-1.32V249.61h1.32Z"/><path class="cls-3" d="M171,280.76h-1.27V254.84l.09-3.72L157.6,280.76h-1.37L144,251.12h0l.14,3.72v25.92h-1.27V249.61h1.88l11.28,27,.9,2.6h.05l.9-2.55,11.28-27H171Z"/><path class="cls-3" d="M194.7,249.61h11c3.24,0,5.68.67,7.32,2a7.34,7.34,0,0,1,2.45,6,6.95,6.95,0,0,1-6,7.36V265a8.19,8.19,0,0,1,5.07,2.45,7.35,7.35,0,0,1,1.82,5.15,7.14,7.14,0,0,1-2.72,6c-1.8,1.39-4.44,2.08-7.9,2.08h-11Zm11,14.82q4.15,0,6.28-1.7a6.11,6.11,0,0,0,2.12-5.05,6.3,6.3,0,0,0-2.12-5.15q-2.13-1.74-6.28-1.74H196v13.64Zm.19,15.15c3,0,5.24-.59,6.77-1.77a6.18,6.18,0,0,0,2.29-5.22,6.11,6.11,0,0,0-2.29-5.19c-1.53-1.16-3.78-1.75-6.77-1.75H196v13.93Z"/><path class="cls-3" d="M259.27,280.76,250,266.83H239.3v13.93H238V249.61h11.38a10.86,10.86,0,0,1,7.29,2.28,7.88,7.88,0,0,1,2.67,6.31,8.1,8.1,0,0,1-2.06,5.75,9.25,9.25,0,0,1-5.73,2.74l9.25,14.07Zm-3.54-17.09a7.74,7.74,0,0,0,0-10.93,9.48,9.48,0,0,0-6.37-2H239.3v14.82h10.06A9.53,9.53,0,0,0,255.73,263.67Z"/><path class="cls-3" d="M298.59,270.18H283.1l-4.34,10.58h-1.37l12.7-31.15h1.51l12.7,31.15h-1.37Zm-.52-1.22-6.28-15.44-1-2.55-.94,2.51L283.58,269Z"/></svg>