<svg id="Layer_1" data-name="Layer 1" xmlns="http://www.w3.org/2000/svg" viewBox="0 0 627.92 605.5"><defs><style>.cls-1{fill:#fff;}.cls-2{fill:#c39738;}.cls-3{fill:#262626;}</style></defs><title>cimbra-logo-white</title><rect class="cls-1" width="627.92" height="605.5"/><path class="cls-2" d="M189.22,472.91a5.78,5.78,0,0,1,1.84,4.63,7.09,7.09,0,0,1-.74,3.23,5.79,5.79,0,0,1-2.31,2.4,7.66,7.66,0,0,1-3.92.91h-3.41v9.24h-1.52v-22h5.08A7.32,7.32,0,0,1,189.22,472.91Zm-1.91,8.91a4.49,4.49,0,0,0,1.75-2,5.69,5.69,0,0,0,.52-2.31,4.61,4.61,0,0,0-1.37-3.46,5.29,5.29,0,0,0-3.81-1.31h-3.72v9.86h3.41A5.78,5.78,0,0,0,187.31,481.82Z"/><path class="cls-2" d="M214.87,493.32,209.11,484a9.46,9.46,0,0,1-1.65.12h-3.41v9.24h-1.52v-22h5a8.51,8.51,0,0,1,3.33.68,6.17,6.17,0,0,1,2.6,2.08,5.79,5.79,0,0,1,1,3.47,7.2,7.2,0,0,1-.93,3.64,5.4,5.4,0,0,1-2.88,2.38l5.95,9.76Zm-3.21-12.18A5.22,5.22,0,0,0,213,477.6a4.73,4.73,0,0,0-.64-2.41,4.47,4.47,0,0,0-1.81-1.77,5.49,5.49,0,0,0-2.73-.65h-3.72v9.86h3.32C209.37,482.63,210.8,482.13,211.66,481.14Z"/><path class="cls-2" d="M228.26,476.72a11.53,11.53,0,0,1,4.09-4.12,10.73,10.73,0,0,1,5.62-1.54,10.87,10.87,0,0,1,5.64,1.54,11.38,11.38,0,0,1,4.12,4.12,11.17,11.17,0,0,1,0,11.25,11.32,11.32,0,0,1-9.76,5.6,11.3,11.3,0,0,1-5.65-1.46,10.78,10.78,0,0,1-4.07-4,11.08,11.08,0,0,1-1.51-5.73A11,11,0,0,1,228.26,476.72Zm1.34,10.52a9.69,9.69,0,0,0,3.5,3.55,9.23,9.23,0,0,0,4.83,1.32,9.77,9.77,0,0,0,8.45-14.68,10,10,0,0,0-3.55-3.58,9.56,9.56,0,0,0-9.76,0,9.72,9.72,0,0,0-3.51,3.61,9.92,9.92,0,0,0-1.27,4.9A9.45,9.45,0,0,0,229.6,487.24Z"/><path class="cls-2" d="M271.12,472.91a5.78,5.78,0,0,1,1.84,4.63,7.09,7.09,0,0,1-.74,3.23,5.79,5.79,0,0,1-2.31,2.4,7.66,7.66,0,0,1-3.92.91h-3.41v9.24h-1.52v-22h5.08A7.32,7.32,0,0,1,271.12,472.91Zm-1.91,8.91a4.49,4.49,0,0,0,1.75-2,5.53,5.53,0,0,0,.52-2.31,4.61,4.61,0,0,0-1.37-3.46,5.29,5.29,0,0,0-3.81-1.31h-3.72v9.86H266A5.78,5.78,0,0,0,269.21,481.82Z"/><path class="cls-2" d="M286,471.31v22h-1.52v-22Z"/><path class="cls-2" d="M312.74,471.31v1.46H300.68v8.74h10.85V483H300.68v8.89h12.49v1.46h-14v-22Z"/><path class="cls-2" d="M325.17,471.31h5.42a12.5,12.5,0,0,1,6.68,1.64,10,10,0,0,1,3.88,4.19,12.13,12.13,0,0,1,1.22,5.3,11,11,0,0,1-1.47,5.7A10.13,10.13,0,0,1,337,492a10.86,10.86,0,0,1-5.31,1.35h-6.48Zm6.07,20.55a10.14,10.14,0,0,0,4.86-1.16,8.67,8.67,0,0,0,3.45-3.32,9.67,9.67,0,0,0,1.27-5,9.89,9.89,0,0,0-1.16-4.76,8.69,8.69,0,0,0-3.42-3.49,10.7,10.7,0,0,0-5.43-1.3h-4.12v19.06Z"/><path class="cls-2" d="M365.53,486h-9.7l-2.92,7.28h-1.52l9.3-23h.13l9.3,23h-1.71Zm-.56-1.43-4.25-10.82-4.34,10.82Z"/><path class="cls-2" d="M381.4,471.31h5.43a12.55,12.55,0,0,1,6.68,1.64,10,10,0,0,1,3.87,4.19,12,12,0,0,1,1.23,5.3,10.86,10.86,0,0,1-1.48,5.7A10.18,10.18,0,0,1,393.2,492a10.93,10.93,0,0,1-5.32,1.35H381.4Zm6.08,20.55a10.13,10.13,0,0,0,4.85-1.16,8.63,8.63,0,0,0,3.46-3.32,9.76,9.76,0,0,0,1.27-5,9.9,9.9,0,0,0-1.17-4.76,8.63,8.63,0,0,0-3.42-3.49,10.7,10.7,0,0,0-5.43-1.3h-4.12v19.06Z"/><path class="cls-2" d="M424,471.31v1.46H411.94v8.74h10.85V483H411.94v8.89h12.49v1.46h-14v-22Z"/><path class="cls-2" d="M445,472.89a10,10,0,0,0-2.66-.37,5.34,5.34,0,0,0-3.48,1.07,3.41,3.41,0,0,0-1.3,2.74,3,3,0,0,0,.7,2A5.63,5.63,0,0,0,440,479.7a30.25,30.25,0,0,0,2.79,1.19,20,20,0,0,1,3.09,1.39,6.56,6.56,0,0,1,2.06,1.94,5.55,5.55,0,0,1,.83,3.15,6.13,6.13,0,0,1-.86,3.24,5.75,5.75,0,0,1-2.44,2.18,7.92,7.92,0,0,1-3.58.78,12.59,12.59,0,0,1-6.94-2.26l.71-1.24a11.83,11.83,0,0,0,2.82,1.51,8.86,8.86,0,0,0,3.26.66,6.65,6.65,0,0,0,2.65-.55,4.82,4.82,0,0,0,2-1.64,4.4,4.4,0,0,0,.79-2.65,4.06,4.06,0,0,0-.72-2.45,5.75,5.75,0,0,0-1.83-1.6,21.27,21.27,0,0,0-2.78-1.22,26,26,0,0,1-3.07-1.32,6.15,6.15,0,0,1-2-1.69,4.13,4.13,0,0,1-.82-2.63,4.85,4.85,0,0,1,.79-2.75,5.37,5.37,0,0,1,2.2-1.86,7.66,7.66,0,0,1,3.15-.69,12.47,12.47,0,0,1,3.08.4,14.27,14.27,0,0,1,2.84,1l-.59,1.18A15.27,15.27,0,0,0,445,472.89Z"/><polygon class="cls-2" points="408.71 152.3 313.96 199.68 313.96 199.68 241.44 163.42 336.18 116.05 313.96 104.94 313.96 104.93 313.95 104.93 313.94 104.93 219.2 152.3 219.2 152.3 219.18 152.31 219.18 152.31 196.96 163.43 196.97 163.43 196.96 163.43 313.96 221.93 313.96 221.93 430.96 163.43 408.71 152.3"/><path class="cls-2" d="M414.72,191.6v99.11L314,341.09,213.2,290.71V191.6l97.18,48.59L314,242l3.58-1.79,97.18-48.59m8-12.94L314,233,205.2,178.66v117L314,350l108.76-54.38v-117Z"/><rect class="cls-2" x="309.96" y="233.04" width="8" height="112.72"/><path class="cls-3" d="M159.51,454a22.6,22.6,0,0,1-12.82,3.53,22.09,22.09,0,0,1-11.9-3.19,21.2,21.2,0,0,1-8-9.09,35.24,35.24,0,0,1,0-27.65,20.92,20.92,0,0,1,7.94-9.1,22.18,22.18,0,0,1,11.9-3.18q15.75,0,19.66,13.05l-2.07,1q-3.69-12.13-17.51-12.13a19.48,19.48,0,0,0-10.75,2.95,19.75,19.75,0,0,0-7.18,8.41,33.29,33.29,0,0,0,0,25.65,19.75,19.75,0,0,0,7.18,8.41,19.48,19.48,0,0,0,10.75,2.95,20,20,0,0,0,11.56-3.22,16,16,0,0,0,6.41-9.14l2.15.77A17.94,17.94,0,0,1,159.51,454Z"/><path class="cls-3" d="M202.82,456.72h-2.15V406.05h2.15Z"/><path class="cls-3" d="M287.13,456.72h-2.08V414.57l.16-6.07-19.89,48.22h-2.23L243.21,408.5h-.08l.23,6.07v42.15h-2.07V406.05h3.07L262.71,450l1.46,4.22h.08L265.7,450l18.36-44h3.07Z"/><path class="cls-3" d="M325.67,406.05h17.82q7.9,0,11.9,3.3t4,9.75a11.34,11.34,0,0,1-9.83,12v.07a13.47,13.47,0,0,1,8.26,4,11.9,11.9,0,0,1,2.95,8.37q0,6.45-4.41,9.82t-12.86,3.38H325.67Zm17.82,24.11q6.75,0,10.21-2.77t3.45-8.21q0-5.54-3.45-8.37T343.49,408H327.82v22.19Zm.3,24.64q7.29,0,11-2.88t3.72-8.48q0-5.61-3.72-8.45t-11-2.84h-16V454.8Z"/><path class="cls-3" d="M430.71,456.72l-15-22.65H398.23v22.65h-2.15V406.05h18.51q7.52,0,11.86,3.72T430.79,420a13.29,13.29,0,0,1-3.34,9.37,15.13,15.13,0,0,1-9.33,4.45l15.05,22.88ZM425,428.93q3.69-3.15,3.69-8.91a11.1,11.1,0,0,0-3.69-8.87Q421.26,408,414.59,408H398.23v24.11h16.36Q421.27,432.08,425,428.93Z"/><path class="cls-3" d="M494.67,439.52H469.48l-7.06,17.2h-2.23l20.66-50.67h2.46L504,456.72h-2.23Zm-.84-2-10.22-25.11-1.53-4.15-1.54,4.07-10.29,25.19Z"/></svg>